<?xml version="1.0" encoding="utf-8"?>
<!-- Generator: Adobe Illustrator 19.2.0, SVG Export Plug-In . SVG Version: 6.00 Build 0)  -->
<svg version="1.1" baseProfile="tiny" id="Layer_1" xmlns="http://www.w3.org/2000/svg" xmlns:xlink="http://www.w3.org/1999/xlink"
	 x="0px" y="0px" viewBox="0 0 200 200" xml:space="preserve">
<path fill-rule="evenodd" fill="#FFFFFF" d="M101.3,69.4c3.6,0.6,11.6-1,14.4,0.6c2.3,1.3,1.3,7.7,1.3,10.8
	c0,11.4-2.3,22.3-1.6,33.5c0.5,9.6-0.5,19.4,0.3,28.8c0.3,3.5,1.2,7,1.3,10.8c0,1.6-0.5,3.1-2.1,4.3c-6.5,0-13.5,0.1-20.1-0.1
	c-2.2-0.1-4.7,0.3-6.7,0c-1-0.1-1.7-0.7-2.6-1.4c-0.8-0.6-1.9-1.2-2.1-1.8c-0.4-1.1,0-3.2,0-5c0-23.1-0.3-45.7-0.3-68.8
	c0-1.6-0.4-3.5,0-4.8c0.2-0.8,1.3-1.7,2-2.6c0.7-0.9,1.5-1.8,2.3-2.4c1.2-0.8,2.8-1.4,4.2-1.9c0-4.5,3-9.1,3.1-14.2
	c0-1.9-0.2-4.3-0.2-6.6c0-1.7-0.4-5.8,0.7-6.4c0.3-0.4,1.8-0.3,2.4,0c1,0.4,0.8,1.4,0.8,2.9c0,3.5-0.2,7.2-0.2,10.1
	C98.3,59.9,101.2,64.7,101.3,69.4z M86.8,78.8c-0.9,21.2-1,43.4-1,65.3c0,1.7-0.4,3.6,0,4.7c0.2,0.6,1.2,1.2,2,2
	c0.8,0.8,1.4,1.7,2.1,1.9c1.5,0.3,4.4,0,6.5,0c5.8,0,10.9,0,16.3,0c1.1,0,2.4,0.2,2.9-0.2c-0.8-0.4-1.9-0.2-2.8-0.2
	c-7.6,0-15.4,0-22.9,0c-0.9-0.5-1.2-1.1-1.8-1.8c-0.6-0.6-1.6-1.1-1.8-1.9c-0.4-1.3,0-3.1,0-4.7c0-20.8-0.3-41.6,0.8-61.4
	c0.2-4.2-0.5-9.3,1.6-11.7C86.7,72.6,86.9,75.6,86.8,78.8z M92.3,89.4c-1,3.3-0.9,7.3-1.1,11.1c6.2,0.2,13.5,0.2,19.8,0
	c0.9-3.3,0.9-7.8,1.1-11.2C105.9,89.2,98.2,89,92.3,89.4z M91,107.2c0.1,1-0.2,2.2,0.2,3c1.5,0.2,4,0.2,5.5,0c0-1,0-2,0-3
	C95.2,107,92.5,107,91,107.2z M99.2,107.1c-0.9,0.5-0.5,2.3-0.3,3.1c1.5,0.2,4.1,0.2,5.5,0c0.3-0.8,0.3-2.2,0-3
	C103,106.9,100.9,107.1,99.2,107.1z M106.8,107.1c-0.9,0.4-0.5,2.3-0.3,3.1c1.5,0.2,4.1,0.2,5.5,0c0.3-0.8,0.3-2.2,0-3
	C110.6,106.9,108.5,107.1,106.8,107.1z M91,111.9c0.1,1-0.2,2.2,0.2,3c1.4,0.2,4,0.2,5.4,0c0.4-0.8,0.1-2,0.2-3
	C95.2,111.7,92.5,111.7,91,111.9z M99.2,111.8c-0.9,0.4-0.4,2.3-0.3,3.1c1.5,0.2,4,0.2,5.5,0c0.3-0.8,0.2-2.3,0-3.1
	C102.6,111.8,100.9,111.8,99.2,111.8z M106.7,111.8c-0.6,0.6-0.3,2.3-0.2,3.1c1.5,0.2,4,0.2,5.5,0c0.3-0.8,0.3-2.3,0-3.1
	C110.3,111.8,108.5,111.8,106.7,111.8z M91,122.9c0.1,1-0.2,2.2,0.2,3c1.5,0.2,3.9,0.2,5.4,0c0.4-0.8,0.1-2,0.2-3
	C95.2,122.7,92.5,122.7,91,122.9z M99.2,122.8c-0.9,0.4-0.4,2.3-0.3,3.1c1.5,0.2,4,0.2,5.5,0c0.3-0.8,0.2-2.3,0-3.1
	C102.6,122.8,100.9,122.8,99.2,122.8z M106.7,122.8c-0.6,0.6-0.3,2.3-0.2,3.1c1.5,0.2,4,0.2,5.5,0c0.3-0.8,0.3-2.3,0-3.1
	C110.3,122.8,108.5,122.8,106.7,122.8z M91.5,127.4c-1,0.5-0.3,2.1-0.5,3.1c1.5,0.2,4.2,0.2,5.7,0c0-1,0-2,0-3
	C95.3,127.3,93.2,127.5,91.5,127.4z M98.8,127.6c-0.3,0.7-0.2,2.1,0,2.9c1.5,0.2,4.1,0.2,5.5,0c0.3-0.8,0.3-2.2,0-3
	C102.9,127.4,100,127.2,98.8,127.6z M106.8,127.4c-0.9,0.4-0.5,2.3-0.3,3.1c1.5,0.2,4.1,0.2,5.5,0c0.3-0.8,0.2-2.2,0-3
	C110.6,127.3,108.5,127.5,106.8,127.4z M91.2,132.2c-0.3,0.7-0.3,2.2,0,3c1.5,0.2,3.9,0.2,5.4,0c0.3-0.8,0.3-2.3,0-3.1
	C95.1,131.9,92.3,131.7,91.2,132.2z M98.8,132.2c-0.3,0.8-0.2,2.2,0,3c1.5,0.2,4,0.2,5.5,0c0.2-0.8,0.3-2.3,0-3.1
	C102.9,131.9,100,131.7,98.8,132.2z M106.5,132.2c-0.3,0.8-0.2,2.2,0,3c1.5,0.2,4,0.2,5.5,0c0.3-0.8,0.3-2.3,0-3.1
	C110.6,131.9,107.7,131.7,106.5,132.2z M91.5,136.7c-1,0.5-0.3,2.1-0.5,3.1c1.5,0.2,4.2,0.2,5.7,0c0-1,0-2,0-3
	C95.3,136.5,93.2,136.7,91.5,136.7z M99.2,136.7c-0.9,0.5-0.5,2.3-0.3,3.1c1.5,0.2,4.1,0.2,5.5,0c0.3-0.8,0.3-2.2,0-3
	C103,136.5,100.9,136.7,99.2,136.7z M106.8,136.7c-0.9,0.4-0.5,2.3-0.3,3.1c1.5,0.2,4.1,0.2,5.5,0c0.3-0.8,0.3-2.2,0-3
	C110.6,136.5,108.5,136.7,106.8,136.7z"/>
</svg>
