<?xml version="1.0" encoding="utf-8"?>
<!-- Generator: Adobe Illustrator 19.2.0, SVG Export Plug-In . SVG Version: 6.00 Build 0)  -->
<svg version="1.1" baseProfile="tiny" id="Layer_1" xmlns="http://www.w3.org/2000/svg" xmlns:xlink="http://www.w3.org/1999/xlink"
	 x="0px" y="0px" viewBox="0 0 200 200" xml:space="preserve">
<g>
	<path fill-rule="evenodd" fill="#FFFFFF" d="M124.4,99.2c-1.2,0.1-2.2,0.1-3.6-0.2c-0.7-0.2-2.5-1.3-2.9-0.2
		c-0.3,1,1.8,1.8,2.3,2.1c1.1,0.7,1.7,1.3,2.6,1.9c-2.7,4-6.4,7.1-12.6,7.1c-8,0-14.3-6.1-14.9-13.5c-0.7-9.1,6-16.3,14.6-16.4
		c3,0,5.9,0.9,7.9,2.1C122.9,84.9,126.6,91.4,124.4,99.2z M110.1,85.9c3.8,0.1,3.3-6.1-0.7-5C107,81.6,107.1,85.8,110.1,85.9z
		 M104.3,87.5c3.5-0.1,3.2-5.9-0.7-5C100.6,83.2,101.4,87.6,104.3,87.5z M113.6,85.5c0.4,3.3,5.6,2.5,5.1-0.9c-0.2-1.5-1.4-2.3-3-2
		C114.3,82.9,113.4,83.7,113.6,85.5z M103.5,90.2c-0.5,0.8-1.3,2.9-1.3,4.4c0,4.4,3.2,7.5,7,7.9c6.9,0.7,11.1-6.7,7.7-12.1
		c-1.1-1.7-3.8-3.8-7.2-3.6C106.7,87,104.7,88.4,103.5,90.2z M100.8,91.9c1.1-0.2,2.2-1.7,1.7-3.4c-0.3-1.2-1.8-1.8-2.9-1.6
		C96.1,87.5,97.4,92.7,100.8,91.9z M119.5,92.2c4.2,1.4,4.9-5.9,0.3-4.9C117.3,87.9,117.5,91.5,119.5,92.2z M96.3,94.4
		c-0.8,2.2,1,3.7,2.6,3.6c3.5-0.2,3-5.9-0.8-5C97.1,93.2,96.5,93.8,96.3,94.4z M98,101.1c0,3.1,5.3,3.5,5.2-0.1
		c0-1.7-1.3-2.6-2.9-2.4C98.8,98.8,98,99.8,98,101.1z M117.3,106.4c1.8,0,3.1-2,2.2-3.8c-0.3-0.7-1.6-1.3-2.4-1.3
		C113.4,101.5,114.4,106.4,117.3,106.4z M105,107.5c1.5,0.1,3.4-0.9,2.8-3.4c-0.3-1.2-1.9-1.9-3.1-1.6
		C101.8,103.1,102.3,107.3,105,107.5z M108.8,105.8c-0.4,3.9,5.7,3.7,5.1-0.1c-0.2-1.4-1.5-2.2-3-2
		C109.4,104,108.9,104.9,108.8,105.8z"/>
	<path fill-rule="evenodd" fill="#FFFFFF" d="M109.7,81.4c1.1-0.3,2.3,0.3,2.6,1.3c0.8,3.3-3.7,3.3-4.1,1
		C108,82.6,108.6,81.6,109.7,81.4z"/>
	<path fill-rule="evenodd" fill="#FFFFFF" d="M103.7,83c1.1-0.3,2.4,0.4,2.6,1.4c0.4,1.9-1.4,3-2.8,2.6c-0.6-0.2-1.7-1.1-1.3-2.7
		C102.3,83.9,102.9,83.2,103.7,83z"/>
	<path fill-rule="evenodd" fill="#FFFFFF" d="M115.9,83.1c1.2-0.2,2.4,0.6,2.3,2.1c0,1.3-1.1,1.9-1.9,2
		C113.9,87.4,113.1,83.5,115.9,83.1z"/>
	<path fill-rule="evenodd" fill="#FFFFFF" d="M99.4,87.5c3.4-0.9,3.5,4.3,0.3,4C97.9,91.3,97.2,88.1,99.4,87.5z"/>
	<path fill-rule="evenodd" fill="#FFFFFF" d="M120.1,87.8c2.9-0.6,3.2,4.1,0.3,4.1c-1,0-2.5-0.8-2-2.8
		C118.6,88.6,119.2,87.9,120.1,87.8z"/>
	<path fill-rule="evenodd" fill="#FFFFFF" d="M98.2,93.5c3.7-0.9,3.2,5.3-0.3,3.8C96.6,96.8,96,94,98.2,93.5z"/>
	<path fill-rule="evenodd" fill="#FFFFFF" d="M100.1,99.2c3.4-0.8,3.3,4.6,0,4C98.4,102.8,97.9,99.7,100.1,99.2z"/>
	<path fill-rule="evenodd" fill="#FFFFFF" d="M116.6,101.8c1.5-0.4,2.6,0.5,2.7,1.9c0.1,3.4-5,2.2-4.1-0.7
		C115.4,102.6,115.8,102,116.6,101.8z"/>
	<path fill-rule="evenodd" fill="#FFFFFF" d="M104.8,103c1.3-0.3,2.4,0.4,2.6,1.4c0.8,3.7-5.3,3.1-4-0.3
		C103.5,103.6,104,103.2,104.8,103z"/>
	<path fill-rule="evenodd" fill="#FFFFFF" d="M111.2,104.2c1-0.1,2.3,0.7,2.3,1.9c0.1,2.8-4.2,3-4.2,0.1
		C109.3,104.9,110,104.3,111.2,104.2z"/>
	<path fill-rule="evenodd" fill="#FFFFFF" d="M84.1,92.2c-6.9,1-14,2.8-20.2,4.9c-2.1,0.7-4.2,1.3-5.8,2.6c0,2,0.3,3.5,1.2,4.7
		c0.5,0.7,1.1,1,2,1.5c1.8,1.2,4.1,3,5.2,5c0.5,0.8,1,2,0.9,3.4c-0.2,3.5-3.7,5.6-7.1,5.9c-5.9,0.5-11.4-2-14.4-5.2
		c-1.3-1.4-2.5-2.7-2.7-4.7c-0.5-4.4,3.6-7,6.2-8.8c1.8-1.3,3.8-2.4,5.3-3.4c0.9-4.2,2.4-9.2,4.3-12.9c0.6-1.2,1.4-2.9,2.2-3.5
		c0.3-0.2,0-0.2,0.7-0.3c0.2,0,0.4,0.2,0.6-0.1c0.2-0.7,0.7-1.2,1-1.7c-0.5-4.6,1.2-7.8,4.1-9.4c2.6-1.4,6.6-2.1,10-2.9
		c3.7-0.8,7.5-1.6,10.9-1.9c0.1-1.2-0.4-2.2-0.1-3.3c1.2-1,5.1-1.6,6.5-0.2c0.7,0.7,0.5,1.5,0.8,2.7c9.5-1,20.7-0.9,30,0.1
		c0.5-1.1,0.1-1.9,0.8-2.7c1.3-1.4,5.4-0.8,6.5,0.2c0.3,0.9,0,2.2-0.1,3.1c5.3,0.9,10.5,1.8,15.5,3.3c1.6,0.5,3.3,0.9,4.5,1.6
		c2.6,1.5,4.1,4.4,4,8.1c-0.1,1.2-0.4,1.8-0.5,2.9c0,0.9,0.3,1.7,0.2,2.4c-0.1,1.9-0.9,4.1-2.6,5c-1.4,0.7-4.2,0.7-6.3,0.6
		c-4.4-0.3-7.7-1.1-11.2-2.6c-1.6-0.7-3.4-1.4-4-2.9c-1.3-3.3,2-5.6,1.6-8.4c-0.2-1.3-1-1.8-2.1-2.6c-1.2,5.6-4.2,9.3-8.4,12
		c3.9-0.1,8-0.3,10.2,1.7c2.3,2.2,3.2,7.1,4.2,10.9c1.3,5,2.9,10.3,4.3,15.5c0.8,2.7,1.7,5.5,2.1,7.8c0.3,2,0.1,4.8,0.1,7.8
		c0,5.1,0.3,7.6-2.6,9.2c-3.5,1.9-10.6,1.4-16.4,1.4c-12,0-22.9,0-35.6,0c-4.8,0-12.2-0.7-13.3-4.4c-0.4-1.5-0.1-4.5,0-6.7
		c0.1-2.6-0.2-5.3,0.1-7.4c0.2-1.2,0.7-2.3,0.9-3.5C79.9,108.8,82.1,100.2,84.1,92.2z M94,81.6c-2.1-2.4-3.8-5.6-4.7-9.3
		c0-0.1,0-0.1-0.1-0.1c-1.3,0.7-2.7,1.2-3.1,2.6c-0.9,2.9,2.9,5.5,1.5,9c-0.2,0.5-1,1.3-1.5,1.7c-1.8,1.3-4.9,2.3-7.9,2.9
		C75,89,71.4,89.6,68,89.2c-2.9-0.4-4.1-2.7-4.5-5.6c-1.8,4.1-4.2,7.7-5.1,12.7c8.2-2.9,16.4-5.8,26.4-6.9c1.2-4.5,6.1-5.3,11.7-5.3
		C95.9,83.2,94.8,82.5,94,81.6z M82.8,78.6c0.4-0.2,1-0.5,0.2-0.2c-0.6,0.2-1.7,0.6-2.2,0.7c-3.7,1-7.8,1.7-11.6,2.3
		c-0.7-0.1-1.1,0.2-1.7,0.1c-0.3-0.1-0.5,0.2-0.1,0.1C73.3,80.9,78.4,80.4,82.8,78.6z M137,78.3c0.9,0.6,2.3,0.8,3.6,1.2
		c3.7,1,8.4,1.9,12.4,2.1c-4-0.6-8.9-1.2-12.6-2.3c-0.9,0-1.3-0.4-2.1-0.5C138.3,78.7,136.4,78,137,78.3z M102.9,80.6
		c-5.1,2.6-9.2,7.8-8.6,15.5c0.4,4.9,2.5,8.2,5.3,10.8c3,2.7,7.6,4.3,12.3,3.8c3.8-0.3,7.3-2.3,9.7-4.7c2.4-2.4,4.2-5.6,4.5-9.8
		c0.3-4.3-0.9-7.9-2.7-10.6c-2.4-3.6-7.6-7.2-14.1-6.9C106.8,79,104.8,79.6,102.9,80.6z M63.7,82.5c-0.2-0.5,0.3-1.1,0-1.3
		C63.6,81.7,63.1,82.3,63.7,82.5z M83.9,81.7c1.8-0.6,0.2-0.1-0.9,0.2c-4.6,1.4-9.3,2.4-14.4,2.8c-0.1,0-0.1,0.1,0.1,0.1
		C74.3,84.6,79.4,83.2,83.9,81.7z M137.3,81.8c-0.5-0.2-1.9-0.6-1.5-0.3c1,0.6,2.3,0.8,3.6,1.2c3.8,1.1,7.7,2.1,12.3,2.2
		c0.1,0,0.1-0.1-0.1-0.1C146.4,84.4,141.5,83.1,137.3,81.8z M127,87.4c1.2,0,3.7-0.8,5.1-1.2C130.2,86.4,128.7,87,127,87.4z
		 M89.4,87.1c-0.4-0.1-2.6-0.4-1,0c1.9,0.5,4.4,0.9,6,0.6C92.8,87.5,91.1,87.3,89.4,87.1z M50.1,104.2c-1.4,1.1-3.2,2.4-3.6,3.8
		c-0.8,3,1.4,5.2,2.9,6.3c1.4,1,3.3,1.8,5.7,2.3c1.8,0.4,5.5,0.9,7.2-0.1c0.9-0.5,1.6-2,1.5-3.3c-0.2-2.1-2.3-3.7-3.6-4.7
		c-0.8-0.6-1.8-1-2.6-1.6c-1.8-1.5-2.2-3.2-2.8-5.8c0-0.1-0.1-0.1-0.1,0C53.2,102,51.8,102.9,50.1,104.2z M80.8,117.9
		c-0.6,0.7-1.4,1.2-1.7,2.1c5.2-5.3,11.1-10.5,16-15.7C90.2,108.5,85.1,113.1,80.8,117.9z M142.4,119.2c-5.3-4.9-11-10-16.9-14
		C131.2,109.7,136.9,114.9,142.4,119.2z M91.9,125.9c12,0,23.9,0,35.6,0c5.9,0,12.2,0,15.2-2.7c0.6-0.5,1.2-1.4,1-2.3
		c-0.3,1.2-0.9,1.8-1.7,2.3c-4.9,3-14.3,2.1-22.2,2.1c-4.5,0-9,0-13.8,0c-10,0-23.3,1.3-28.1-3.6c0-0.1-0.1-0.1-0.1,0
		C79.7,124.8,86.1,125.9,91.9,125.9z"/>
</g>
</svg>
