<?xml version="1.0" encoding="utf-8"?>
<!-- Generator: Adobe Illustrator 19.2.0, SVG Export Plug-In . SVG Version: 6.00 Build 0)  -->
<svg version="1.1" baseProfile="tiny" id="Layer_1" xmlns="http://www.w3.org/2000/svg" xmlns:xlink="http://www.w3.org/1999/xlink"
	 x="0px" y="0px" viewBox="0 0 200 200" xml:space="preserve">
<path fill-rule="evenodd" fill="#FFFFFF" d="M69.8,101.4h26.9v41.7H69.8c-1.4,0-2.6-1.2-2.6-2.6v-36.4
	C67.2,102.6,68.3,101.4,69.8,101.4L69.8,101.4z M103.4,101.4h26.9c1.4,0,2.6,1.2,2.6,2.6v36.4c0,1.5-1.2,2.6-2.6,2.6h-26.9V101.4
	L103.4,101.4z M67.5,83.5h29.1v14.4H67.5c-1.5,0-2.6-1.2-2.6-2.6v-9.2C64.8,84.6,66,83.5,67.5,83.5L67.5,83.5z M103.4,83.5h29.1
	c1.5,0,2.6,1.2,2.6,2.6v9.2c0,1.5-1.2,2.6-2.6,2.6h-29.1V83.5L103.4,83.5z M109,80.5c-0.6,0.1-1.1-0.2-1.3-0.7
	c-0.2-0.6,0.1-1.2,0.6-1.4c2.7-1.2,6.1-3,7.9-5.3c0.8-1,1.5-2.5,0.8-3.7c-0.9-1.6-3.4-1.5-4.9-1.1c-3.5,0.9-6.5,3.9-8.4,6.8
	c-0.3,0.5-1,0.6-1.5,0.3c-0.5-0.3-0.7-0.9-0.5-1.4c2.5-6.4,6.8-13.1,13.4-15.9c4-1.8,9.2-1.9,12.8,0.9c1,0.8,1.8,1.9,2.3,3.1
	c1.5,3.6-0.4,7.2-2.9,9.7C122.7,76.4,115.1,79,109,80.5L109,80.5z M96.3,75.1c-2-2.9-4.9-5.9-8.4-6.8c-1.5-0.4-4-0.5-4.9,1.1
	c-0.7,1.2,0.1,2.7,0.8,3.7c1.8,2.4,5.2,4.2,7.9,5.3c0.5,0.2,0.8,0.8,0.6,1.4c-0.2,0.5-0.8,0.8-1.3,0.7c-6.1-1.5-13.7-4.1-18.2-8.6
	c-2.6-2.5-4.4-6.1-2.9-9.7c0.5-1.2,1.3-2.2,2.3-3.1c3.6-2.9,8.7-2.7,12.8-0.9c6.6,2.9,10.9,9.5,13.4,15.9c0.2,0.5,0,1.1-0.5,1.4
	C97.3,75.7,96.7,75.6,96.3,75.1L96.3,75.1z M95.6,80.9c-0.1-0.5-0.1-1,0.1-1.4c0.8-1.6,2.4-2.6,4.2-2.6c1.8,0,3.4,1,4.2,2.6
	c0.2,0.5,0.3,1,0.1,1.4H95.6L95.6,80.9z"/>
</svg>
