<?xml version="1.0" encoding="utf-8"?>
<!-- Generator: Adobe Illustrator 19.2.0, SVG Export Plug-In . SVG Version: 6.00 Build 0)  -->
<svg version="1.1" baseProfile="tiny" id="Layer_1" xmlns="http://www.w3.org/2000/svg" xmlns:xlink="http://www.w3.org/1999/xlink"
	 x="0px" y="0px" viewBox="0 0 200 200" xml:space="preserve">
<g>
	<path fill="#FFFFFF" d="M125.4,143.9c0,4-3.3,7.3-7.3,7.3H81.9c-4,0-7.3-3.3-7.3-7.3V56.1c0-4,3.3-7.3,7.3-7.3h36.1
		c4,0,7.3,3.3,7.3,7.3V143.9z"/>
	<path fill="#76CDDA" d="M118.6,106.4c0,0.9-0.7,1.6-1.6,1.6H83.1c-0.9,0-1.6-0.7-1.6-1.6v-45c0-0.9,0.7-1.6,1.6-1.6h33.9
		c0.9,0,1.6,0.7,1.6,1.6V106.4z"/>
	<path fill="#76CDDA" d="M104.7,121.4c0,0.7-0.6,1.2-1.2,1.2h-7.1c-0.7,0-1.2-0.6-1.2-1.2v-7.1c0-0.7,0.6-1.2,1.2-1.2h7.1
		c0.7,0,1.2,0.6,1.2,1.2V121.4z"/>
	<path fill="#76CDDA" d="M90.2,113h-7.5c-0.7,0-1.3,0.6-1.3,1.3v0.9c0,0.4,0.2,0.8,0.5,1c0-0.1,0-0.1,0-0.2v-0.9
		c0-0.6,0.5-1.2,1.2-1.2h6.7c0.6,0,1.2,0.5,1.2,1.2v0.9c0,0.1,0,0.1,0,0.2c0.3-0.2,0.5-0.6,0.5-1v-0.9C91.4,113.6,90.9,113,90.2,113
		z"/>
	<path fill="#76CDDA" d="M90.2,118.8h-7.5c-0.7,0-1.3,0.6-1.3,1.3v0.9c0,0.4,0.2,0.8,0.5,1c0-0.1,0-0.1,0-0.2V121
		c0-0.6,0.5-1.2,1.2-1.2h6.7c0.6,0,1.2,0.5,1.2,1.2v0.9c0,0.1,0,0.1,0,0.2c0.3-0.2,0.5-0.6,0.5-1v-0.9
		C91.4,119.4,90.9,118.8,90.2,118.8z"/>
	<path fill="#76CDDA" d="M117.1,113h-7.5c-0.7,0-1.3,0.6-1.3,1.3v0.9c0,0.4,0.2,0.8,0.5,1c0-0.1,0-0.1,0-0.2v-0.9
		c0-0.6,0.5-1.2,1.2-1.2h6.7c0.6,0,1.2,0.5,1.2,1.2v0.9c0,0.1,0,0.1,0,0.2c0.3-0.2,0.5-0.6,0.5-1v-0.9
		C118.3,113.6,117.7,113,117.1,113z"/>
	<path fill="#76CDDA" d="M117.1,118.8h-7.5c-0.7,0-1.3,0.6-1.3,1.3v0.9c0,0.4,0.2,0.8,0.5,1c0-0.1,0-0.1,0-0.2V121
		c0-0.6,0.5-1.2,1.2-1.2h6.7c0.6,0,1.2,0.5,1.2,1.2v0.9c0,0.1,0,0.1,0,0.2c0.3-0.2,0.5-0.6,0.5-1v-0.9
		C118.3,119.4,117.7,118.8,117.1,118.8z"/>
	<path fill="#76CDDA" d="M116.9,127.9H83.1c-1.1,0-2,0.9-2,2v1.5c0,1.1,0.9,2,2,2h33.9c1.1,0,2-0.9,2-2v-1.5
		C119,128.8,118.1,127.9,116.9,127.9z M106.7,128.7v3.9H93.1v-3.9H106.7z M81.8,131.4v-1.5c0-0.7,0.5-1.2,1.2-1.2h9.2v3.9h-9.2
		C82.4,132.7,81.8,132.1,81.8,131.4z M118.2,131.4c0,0.7-0.5,1.2-1.2,1.2h-9.4v-3.9h9.4c0.7,0,1.2,0.5,1.2,1.2V131.4z"/>
	<path fill="#76CDDA" d="M116.9,132.7H83.1c-1.1,0-2,0.9-2,2v1.5c0,1.1,0.9,2,2,2h33.9c1.1,0,2-0.9,2-2v-1.5
		C119,133.6,118.1,132.7,116.9,132.7z M106.7,133.5v3.9H93.1v-3.9H106.7z M81.8,136.2v-1.5c0-0.7,0.5-1.2,1.2-1.2h9.2v3.9h-9.2
		C82.4,137.4,81.8,136.9,81.8,136.2z M118.2,136.2c0,0.7-0.5,1.2-1.2,1.2h-9.4v-3.9h9.4c0.7,0,1.2,0.5,1.2,1.2V136.2z"/>
	<path fill="#76CDDA" d="M116.9,137.5H83.1c-1.1,0-2,0.9-2,2v1.5c0,1.1,0.9,2,2,2h33.9c1.1,0,2-0.9,2-2v-1.5
		C119,138.4,118.1,137.5,116.9,137.5z M106.7,138.3v3.9H93.1v-3.9H106.7z M81.8,141v-1.5c0-0.7,0.5-1.2,1.2-1.2h9.2v3.9h-9.2
		C82.4,142.2,81.8,141.7,81.8,141z M118.2,141c0,0.7-0.5,1.2-1.2,1.2h-9.4v-3.9h9.4c0.7,0,1.2,0.5,1.2,1.2V141z"/>
</g>
</svg>
