<?xml version="1.0" encoding="utf-8"?>
<!-- Generator: Adobe Illustrator 19.2.0, SVG Export Plug-In . SVG Version: 6.00 Build 0)  -->
<svg version="1.1" baseProfile="tiny" id="Layer_1" xmlns="http://www.w3.org/2000/svg" xmlns:xlink="http://www.w3.org/1999/xlink"
	 x="0px" y="0px" viewBox="0 0 200 200" xml:space="preserve">
<g>
	<path fill-rule="evenodd" fill="#FFFFFF" d="M128.1,78.1c0.6,0.4,0.8,0,1.2-0.3c0.3-0.2,1.3-0.1,1.6,0c0.8,1.4,0.5,3.5,0.5,5.5
		c0,2-0.1,4.1,0.1,5.8c1,0.4,1.7,0.3,2.6,0.1c0.8-0.2,1.3-0.9,1.9-1c1.8-0.4,3.4,0.1,5.6-0.1c0.9,1.1,1,3.9,0,4.9
		c-2.1-0.2-3.7,0.3-5.4,0c-1-0.2-1.7-1.1-2.7-1.2c-1.6-0.3-2.3,0.6-4.2,0.6c-0.8-0.6-0.6-1.6-0.6-2.6c0-2.8,0-6.4-0.2-9
		c-0.8,0.4-0.5,1.7-0.5,2.8c0,13.4,0,27.4,0,41c0,2.1-0.2,4.3,0,6.3c0.2,1.5,0.8,3,1.2,4.5c0.2,0.7,0.4,1.5,0.6,2.2
		c0.4,1.7,0.8,3.7,0.6,6.3c-0.8,0-1.6,0-2.4,0c0.1,2.9,0.3,6.1-1.8,7.2c-2,1-8,0.4-11.5,0.4c-10,0-19.9,0-30,0
		c-3.4,0-6.2,0.3-7.3-1.8c-0.7-1.3-0.2-4.2-0.4-5.6c-0.8-0.3-2.1,0-3.1-0.1c-0.4-3.6,0.7-5.9,1.5-8.4c0.3-0.8,0.5-1.7,0.7-2.5
		c0.3-0.8,0.7-1.6,0.8-2.4c0.2-1.6,0-3.5,0-5.2c0-5.1,0-10.1,0-15.5c-1.2,0.2-2.5,0.7-2.9,1.8c-0.4,1-0.1,3.2-0.1,5.1
		c0,4.9,0.3,11,0,15.5c-0.1,2.1-0.9,4.9-3.1,5.5c-2.7,0.8-4.8-1.3-5.2-3.5c-0.3-2.2,0-4.8,0-7.4c0-7,0-15.4,0-22.1
		c-1.5-0.3-3.7-0.1-5.4-0.8c-0.5-0.2-1-0.7-1.5-1.1c-0.7-0.5-1.1-0.8-1.2-1.5c-0.2-1.5,1-2.4,2.7-2.7c1.1-3.3,2.1-7.9,2.2-12.4
		c0.1-1.6,0.4-3.8,0-4.9c0-0.1,0.1-0.5,0-0.6c-0.1-0.1-0.3,0-0.4-0.1c-0.3-0.3-0.3-0.2-0.4-0.7c-0.1-0.5-0.2-1.4,0.6-1.5
		c-0.5-0.9-1.1-0.8-1.1-2c0.2-2.9,8.9-3.2,9.6-0.3c0.3,1.1-0.3,1.4-0.9,2.5c2.3,0,4.5,0,6.8,0c0.2-6,0.1-14.7,0.1-21.7
		c0-2.4-0.4-5.8,0.4-7.2c1.2-2.4,4.6-1.8,8.4-1.8c11.3,0,22.7,0,34.2,0c3.6,0,6.7-0.5,7.8,2c0.7,1.7,0.2,4.7,0.2,6.9
		C128,64.3,127.9,71.2,128.1,78.1z M88.6,59.4c-3.4,1.7-5.8,6.9-3.1,11.2c4.2,6.6,15.7,3.9,15.5-4.4c0-1.9-1.2-4.1-2.1-5.2
		c-1.7-1.8-4.4-2.9-7.6-2.5C90.1,58.7,89.3,59,88.6,59.4z M105.8,62.2c-0.2,0.4-1.2,2.2-1.2,4.4c0.1,4.1,3.4,7.4,7.4,7.8
		c4.7,0.4,9.3-2.7,9.3-8c0-3.2-2.3-6-4.2-7c-1.2-0.6-3.4-1.1-5.5-0.8C108.9,59,106.8,60.6,105.8,62.2z M69.9,81.4
		C69.8,88,70.5,94,72.3,98.8c1.3,0.5,2.6,0.6,2.8,1.9c0.3,1.7-0.3,1.8-1.4,2.5c-0.6,0.4-1,0.8-1.6,1c-1.3,0.5-3.6,0.7-4.8,0.7
		c0,8.5,0,17.4,0,26.1c0,2.8-0.2,6.3,2.8,6.1c1.8-0.1,2.4-2.4,2.6-4.4c0.3-4.5,0-11.3,0-16.3c0-1.9-0.2-4.1,0.4-5.2
		c0.7-1.4,2.3-2.1,4.1-2.4c0-9.3,0-18.5,0-27.8c-2.4,0-4.7,0-7.1,0C69.9,81.1,69.9,81.2,69.9,81.4z M97.7,87.6
		c-3.4,1.6-6.1,5.1-6.1,9.7c0,5.7,4.3,9.8,9.3,10.7c0.9,0.2,2.7,0.2,3.6,0.1c5.3-0.5,9.3-4.9,9.8-9.7c0.3-3.9-1.5-7.2-3.2-8.8
		c-2.1-2-5.3-3.5-9.6-3C99.7,86.8,98.7,87.1,97.7,87.6z M61.3,99.7c2.8,0.6,7.8,0.6,10.7-0.1c-0.2,0-0.3,0-0.5,0
		C68.4,100,64.6,100,61.3,99.7z M61.4,103.3c2.8,0.6,7.9,0.6,10.7-0.1C68.7,103.6,64.9,103.6,61.4,103.3z M127.5,130.3
		c-0.3-2.1-1.6-5.3-2.1-7.6c-15.2,0-30.3,0-45.5,0c-0.7,2.6-1.9,5.2-2.4,7.6c0.9-2.5,1.8-4.9,2.8-7.2c14.9,0,29.8,0,44.7,0
		C125.8,125.6,126.8,127.9,127.5,130.3z M95.4,128.3c-0.3,0.3-1.3,1.8-1.4,2.8c-0.3,2.6,1.4,4.3,3.2,5.2c3.9,2,10.4,1.3,13.1-1.8
		c0.9-1.1,1.6-2.8,1.1-4.5c-1-3.1-5.2-4.7-9.6-4.3C99,126,96.8,126.9,95.4,128.3z M75,140.4c-0.1,0-0.1,0.1-0.1,0.2
		c0,0.1,0,0.1,0.1,0.1c17.6-0.2,35.8,0.3,53.3,0c0.5,0,1.2,0.2,1.5-0.2C111.7,140.3,93.2,140.5,75,140.4z M127.2,144
		c-8.2,0-16.5,0-24.7,0c-4.1,0-8.2,0-12.4,0c-2,0-4.1,0-6.1,0c-1,0-2,0-3.1,0c-0.5,0-1,0-1.5,0c-0.5,0.1-1.3-0.1-1.5,0.1
		C94.3,144.1,111,144.3,127.2,144z"/>
	<path fill-rule="evenodd" fill="#FFFFFF" d="M110.8,131.5c-1.5,0.2-2.7-0.4-3.8-0.2c0.7,0.9,2.2,1.1,3.3,1.7
		c-2,4.4-11.3,4.9-14.6,1.3c-0.6-0.7-1.3-1.9-1.2-3.1C95.3,124.4,110.7,123.6,110.8,131.5z M101.8,126.7c0.3,0.8,2.1,0.8,2.4,0
		C104,125.7,101.9,125.8,101.8,126.7z M99.1,127.4c0.2,0.2,1.3,0.5,1.2,0.2c-0.5,0-0.9-0.1-0.9-0.6c0.2-0.6,1.7-0.8,1.9,0
		c-0.1,0.3-0.5,0.4-0.7,0.6c0.5,0,0.8-0.2,0.9-0.7C101.1,126.1,99,126.2,99.1,127.4z M106.8,127.3c0.1-1-2.2-1.1-2.4-0.2
		C104.6,127.9,106.5,127.9,106.8,127.3z M96.7,128.6c0.6,0.7,2.5,0.5,2.5-0.7C98.6,127.2,96.6,127.4,96.7,128.6z M98.6,130
		c-0.6,4.1,8.3,3.9,8.4,0.2c0-2.2-2.6-2.7-4.6-2.6C100.4,127.8,98.8,128.5,98.6,130z M106.6,128.2c0,1,2.1,1.2,2.6,0.4
		C109.2,127.4,107,127.3,106.6,128.2z M95.3,130.8c0.9,0.6,2.8,0.4,2.7-1C97.3,128.9,95,129.3,95.3,130.8z M95.5,132.9
		c0.4,1.2,3.2,0.5,3.1-0.8c-0.1-0.8-0.9-0.9-1.8-0.7C95.8,131.6,95.3,132.1,95.5,132.9z M105.4,133.5c-0.1,1.6,3.1,2,3.2,0.3
		c0.1-1.1-1.2-1.6-2.4-1.2C105.5,132.8,105.4,133.1,105.4,133.5z M97.8,134.6c0.3,1.7,3.8,0.9,3.3-0.9c-0.1-0.5-0.7-0.7-1.5-0.7
		C98.7,133.1,97.6,133.6,97.8,134.6z M101.7,134.9c0.1,1.8,3.5,1.6,3.4-0.2c-0.1-0.8-0.8-1.3-1.9-1.1
		C102.2,133.7,101.6,134,101.7,134.9z"/>
	<path fill-rule="evenodd" fill="#FFFFFF" d="M103.9,126.6c-0.1,0.8-1.7,0.7-1.9,0.1C102,125.9,103.7,126,103.9,126.6z"/>
	<path fill-rule="evenodd" fill="#FFFFFF" d="M104.7,126.9c0.3-0.5,1.7-0.5,1.9,0.1C106.6,127.8,104.6,127.9,104.7,126.9z"/>
	<path fill-rule="evenodd" fill="#FFFFFF" d="M99,128.1c0.1,0.9-1.6,1.1-2,0.4C96.9,127.6,98.6,127.3,99,128.1z"/>
	<path fill-rule="evenodd" fill="#FFFFFF" d="M108.9,128.6c-0.5,0.6-2.1,0.4-2.1-0.4C107.2,127.5,109,127.6,108.9,128.6z"/>
	<path fill-rule="evenodd" fill="#FFFFFF" d="M97.8,129.9c0.1,1-1.2,1.2-2.1,0.9c0-0.1,0-0.2-0.1-0.2
		C95.5,129.4,97.2,129.2,97.8,129.9z"/>
	<path fill-rule="evenodd" fill="#FFFFFF" d="M98.2,131.9c0.4,1.4-1.9,1.7-2.5,0.9C95.6,131.6,97.5,131.2,98.2,131.9z"/>
	<path fill-rule="evenodd" fill="#FFFFFF" d="M106.4,132.8c0.7-0.3,2.7,0.4,1.8,1.5C107.1,135.4,104.4,133.5,106.4,132.8z"/>
	<path fill-rule="evenodd" fill="#FFFFFF" d="M100.7,133.6c0.6,1.7-2.4,2.2-2.6,0.9C97.9,133.3,99.9,132.7,100.7,133.6z"/>
	<path fill-rule="evenodd" fill="#FFFFFF" d="M103.2,133.8c1-0.1,1.5,0.2,1.5,0.9c0.1,1.5-2.7,1.7-2.7,0.1
		C102,134.1,102.4,133.9,103.2,133.8z"/>
</g>
</svg>
