<?xml version="1.0" encoding="utf-8"?>
<!-- Generator: Adobe Illustrator 19.2.0, SVG Export Plug-In . SVG Version: 6.00 Build 0)  -->
<svg version="1.1" baseProfile="tiny" id="Layer_1" xmlns="http://www.w3.org/2000/svg" xmlns:xlink="http://www.w3.org/1999/xlink"
	 x="0px" y="0px" viewBox="0 0 200 200" xml:space="preserve">
<g>
	<path fill-rule="evenodd" fill="#FFFFFF" d="M56.7,62.6c0.1,0.6-0.1,0.9-0.3,1.2c2.1-0.3,4.5,0.6,6.4,0.1c0.8-0.2,1.3-1.3,2.2-0.7
		c0.5-0.5,1.2-2.1,2.3-1.3c0.3,0.2,0.9,1,1.5,1.2c1.1,0.2,1.8-0.2,2.3-1c0.2-0.4,0.2-0.6,0.6-0.8c0.7-0.4,1.9-0.4,2.9,0.2
		c6.6-1.4,16.3-2.1,22.5,0.1c0.6-0.6,2.1-0.7,2.9-0.2c0.5,0.3,0.3,0.9,0.6,1.3c1.1,1.5,3.9,1,4.8-0.6c0.7,0.2,1,0.7,1.3,1.4
		c1-0.2,1.4,0.3,1.6,0.9c2.5-0.1,5.3,0.2,7.7-0.1c0.4-0.6-0.1-1.1,0.1-1.7c0.3-0.7,1.1-0.8,2-1c0-1.7,2.5-1.4,2.3,0.2
		c1,0.2,1.8,0.4,2,1c0.3,0.8-0.5,1-0.5,1.7c1.1,0.2,2.5,0.2,3.8,0.2c0.6,0,0.4,0.7,0.8,0.8c5,1.4,7.8,5.1,7.6,11.7
		c-0.2,5.3-2.3,9.7-3.8,14.5c-1.4,4.7-2.4,9.9-2.7,15.6c-0.3,6,0.4,11.2,2,15.8c9.2-0.4,20.4,1.3,25.6,5.7c2.1,1.8,3.6,6,1.2,8.7
		c-0.6,0.6-1.9,1.8-3.3,2.1c-1.4,0.4-3.1,0.3-4.5,0.2c-2.5-0.2-4.9-1-7.2-1.9c-2.2-0.8-4.4-1.7-6.2-2.8c-3.9-2.3-6.1-6.2-7.8-10.1
		c-3.6,0-7.1,0-10.7,0c-0.3,0.3,0,1.2-0.2,1.5c-2.4,2.3-6.4,3.1-10.5,3.8c-12.1,2.1-28.7,1.9-40.8-0.1c-4.1-0.7-8.2-1.3-10.5-3.9
		c0.2-1.2-0.2-2.9,0-4.3c0.2-1.4,1.3-3.1,2.1-4.6c5.4-10,13.5-17.7,21.8-24.5c-0.8-0.8-2-1.4-3.5-1.5c-1.1,0-2.2,0.3-3.4,0.2
		c-1.6-0.1-3.2-0.6-4.2-1.4c-0.3-0.2-1-0.6-0.6-1c0.2-0.4,0.8,0.3,1.2,0.5c1,0.6,2.5,1.3,4.3,1.3c0.8,0,1.7-0.3,2.6-0.2
		c1.8,0.1,3.3,0.9,4.3,1.7c2.1-1.9,2.4-5.7,2.7-9.4c-1.8,0.5-1.3,3.5-2.3,5.1c-1,1.6-4,3.1-6.7,1.9c-3.6-1.6-3.3-7.2-3.6-12.4
		c-0.2-3.1-0.6-6.1-0.6-8.5c-1.4,0.1-3,2-3.6,0c-1,0-1.7-0.4-2.1-0.9c-2.4,0-4.7,0-7.1,0c0.1,1.4,1.6,0.9,2.8,0.9
		c1.4,0.1,2.8,0.3,3.5,0.8c0.2,2,0,4.4,0.2,6.4c1.9-0.1,2.4,3,0.5,3.3c0,0.4,0.4,1,0.2,1.7c-0.5,1.9-6.6,1.2-9.2,1.2
		c-1.4,0-3.5,0-5.1,0c-1.6,0-4.1,0.2-4.8-0.3c-0.5-0.5-0.7-2-0.5-2.6c-0.6-0.5-1.3-1-1.2-2c0.1-0.8,0.8-1.3,1.7-1.3
		c0-2.2,0-4.3,0-6.5c0.8-0.6,2.3-0.7,3.7-0.8c0.7,0,2,0.2,2.4-0.2c0.5-0.5-0.6-1.6-0.7-2.4c-0.1-1.2,0.3-1.6,0.8-2.4
		c0-0.5-0.9-0.8-0.6-1.2c0.1-0.5,0.6-0.7,1.2-0.7c0.2-2.5,4.1-2.6,4.2,0C55.8,62.2,56.4,62.3,56.7,62.6z M74.7,69.1
		c0.3-2.1,0.4-4.8-0.2-6.6C74.7,64.5,74.4,67.1,74.7,69.1z M97,70c-0.3-2.1,0-5.1-0.1-7.1C96.6,65.1,96.2,68.1,97,70z M127.9,91.5
		c1.5-5,3.5-9.9,3.5-15.1c0-4.2-1.4-7.4-4.6-8.6c0-0.1,0-0.1-0.1-0.1c-0.1,0.6-0.4,1-0.7,1.3c-1.2,0-2.4,0-3.6,0
		c0.1,0.4,0.6,1.6,0,2.2c1.2,0.6,2.3,2.3,3.5,2.8c0.6,0.3,1.3,0.2,1.9,0.5c0.9,0.4,1.6,1,1.5,2c-0.1,1.6-1.7,1.3-3.3,1.7
		c-1,0.3-1.5,0.8-2.6,0.8c-0.2,1.8-1.4,3.2-1.5,5c-0.1,1.4,0.5,2.5,0.5,3.9c0,3.6-1.3,6.1-3.1,7.9c-2,2-4.6,2.4-7,4.1
		c-0.1,0.7,0.2,1.1,0.2,1.7c-0.5,0.6-1.4,1.1-2.3,0.9c-0.6-0.1-0.9-0.9-1.4-1.6c-2.7-4.1-4.8-10.5-4.4-16.5c0.5-0.3,1.4-1,2.6-0.7
		c0.6,0.2,1.1,1.4,1.9,1.7c2.2,1,5.3,0,6.7-1.3c-0.4-2.2-1.3-3.9-2-5.8c-1.5-0.4-5.7-1-5.7-2.7c0-1.7,3.6-2.2,5.1-2.4
		c0.8-0.7,1.7-1.4,2.3-2.3c-0.8-0.7,0.4-2.1,0-2.1c-2,0.1-4.7-0.5-6.6-0.1c-0.8,0.1-1.3,0.9-2,0.5c-0.4,0.5-0.7,1.1-1.5,1.3
		c-0.6-0.2-0.9-0.7-1.6-0.8c-0.1,2.4-0.4,5.3-0.6,8.1c-0.2,2.9,0,6-0.6,8.2c-0.6,2.5-2.8,4.7-5.9,4.4c-1.9-0.1-3.1-1.3-3.8-2.4
		c-1-1.7-0.5-4.5-2.4-5.1c0,4,1.1,6.8,2.8,9.1c0.9-0.3,1.9-0.9,3.1-0.9c0.9-0.1,1.8,0.2,2.7,0.2c1.8,0,3.4-0.7,4.4-1.3
		c0.3-0.2,0.7-0.9,1.2-0.5c0.2,0.5-0.4,0.8-0.7,1c-1,0.8-2.6,1.3-4.2,1.4c-2.2,0.1-4.6-0.7-5.8,0.6c9.7,7.7,17.7,17.1,22.9,29.4
		c0,0.4,0,0.8,0,1.2c3.4,0,6.7,0,10.1,0C124.3,112.9,125.2,100.7,127.9,91.5z M70.6,73.4c0.1,1.2,0.2,2.4,0.2,3.6
		c0.3,5.5-0.6,12.8,5.1,12.4c1.9-0.1,3-1.7,3.5-3c0.7-1.9,0.2-4.3,2.7-4.3c0-0.4-0.1-0.9,0.1-1.4c0.1-0.3,0.6-0.3,0.9-0.7
		c0.2-0.3,0.3-0.7,0.5-0.9c0.5-0.6,1.3-1.2,2-1.3c2.7-0.3,2.8,2.2,4.4,3.1c0,0.4,0,0.8,0,1.2c2.6,0,2.1,2.5,2.8,4.3
		c0.5,1.5,1.7,3,3.6,3c3.2,0.1,4.4-2.3,4.6-5.1c0.4-4.6,0.4-10.2,0.8-14.8c-1.4-0.2-1.7,1.4-2.6,1.7c-0.3,0.1-1.1,0.2-1.4,0.1
		c-0.6-0.1-0.8-0.5-1.3-0.6c-6.2,1.9-15.9,1.3-22.1-0.2c-0.7,0.4-1.4,0.7-2.2,0.6c-1.1-0.2-1.1-1.6-2-1.9
		C70.6,70.4,70.5,71.9,70.6,73.4z M60.4,76.8c0.1,0,0.1-0.1-0.1-0.1c-2.4,0-4.9,0-7.3,0c-1.2,0-2.4,0-3.6,0c-0.6,0-1.2,0-1.9,0
		c-0.5,0.1-1.4-0.2-1.7,0.1C50.6,76.9,55.6,77,60.4,76.8z M49.3,79.2c-1,0-3,0.2-3.4,0.1c0.8,0.3,2.5,0.1,3.5,0.1
		c3.9,0.2,7.4-0.1,11-0.1c0.1,0,0.1-0.1-0.1-0.1C56.7,79.2,52.8,79.2,49.3,79.2z M106.8,86.5c0-0.3,0.1-1.6-0.1-1.2
		c0.1,5.7,1.4,10.7,3.7,13.9c0,0.1,0.5,0.6,0.3,0.3C108.6,96.2,107.1,91.4,106.8,86.5z M57,122.8c0.7,0.4,1.9,0.7,2.9,1
		c3.2,0.9,6.7,1.5,10,2.1c14.3,2.3,31.4,0.9,42.6-2.9c0.1,0,0.1-0.1-0.1-0.1c-15.6,4.4-40.2,4.9-55.4-0.2
		C56.8,122.7,56.8,122.6,57,122.8z M130.3,125.4c2,6,6.4,9.2,12.7,11c2.6,0.8,5.3,1.5,7.7,1.4c3-0.1,5.2-2.2,4.5-5.2
		c-0.4-1.8-2.5-2.9-4.2-3.8c-5.6-2.9-12.5-3.8-20.7-3.7c-0.1,0-0.1,0-0.1,0.1C130.2,125.3,130.3,125.3,130.3,125.4z"/>
</g>
</svg>
