<?xml version="1.0" encoding="utf-8"?>
<!-- Generator: Adobe Illustrator 19.2.0, SVG Export Plug-In . SVG Version: 6.00 Build 0)  -->
<svg version="1.1" baseProfile="tiny" id="Layer_1" xmlns="http://www.w3.org/2000/svg" xmlns:xlink="http://www.w3.org/1999/xlink"
	 x="0px" y="0px" viewBox="0 0 200 200" xml:space="preserve">
<g>
	<path fill="#FFFFFF" d="M132.2,144.7c0,4.9-4,8.9-8.9,8.9H76.7c-4.9,0-8.9-4-8.9-8.9V55.3c0-4.9,4-8.9,8.9-8.9h46.6
		c4.9,0,8.9,4,8.9,8.9V144.7z"/>
	<path fill="#1F8380" d="M128.1,135.4c0,0.4-0.3,0.7-0.7,0.7H72.7c-0.4,0-0.7-0.3-0.7-0.7V57.6c0-0.4,0.3-0.7,0.7-0.7h54.7
		c0.4,0,0.7,0.3,0.7,0.7V135.4z"/>
	<path fill="#1F8380" d="M108.8,51.7c0,0.4-0.3,0.7-0.7,0.7H92c-0.4,0-0.7-0.3-0.7-0.7v-0.4c0-0.4,0.3-0.7,0.7-0.7h16
		c0.4,0,0.7,0.3,0.7,0.7V51.7z"/>
	<circle fill="none" stroke="#1F8380" stroke-miterlimit="10" cx="100" cy="144.4" r="5.4"/>
	<circle fill="#1F8380" cx="100" cy="144.4" r="2.1"/>
</g>
</svg>
